<svg xmlns="http://www.w3.org/2000/svg" id="canada" width="29.595" height="29.808" viewBox="0 0 29.595 29.808">
    <defs>
        <style>
            .cls-1{fill:#fff}.cls-2{fill:#d32027}
        </style>
    </defs>
    <ellipse id="Ellipse_36" cx="14.797" cy="14.903" class="cls-1" rx="14.797" ry="14.903" transform="translate(.001 .001)"/>
    <path id="Path_3169" d="M0 42.868a14.914 14.914 0 0 0 7.609 13.026V29.842A14.915 14.915 0 0 0 0 42.868z" class="cls-2" transform="translate(-.002 -27.964)"/>
    <path id="Path_3170" d="M229.317 473.548c-.17 0-.334-.006-.5-.009q.248.008.5.009z" class="cls-1" transform="translate(-214.52 -443.74)"/>
    <path id="Path_3171" fill="#e7e7e7" d="M236.637 0c8.173 0 8.173 29.808 0 29.808a14.646 14.646 0 0 0 7.179-1.872V1.871A14.646 14.646 0 0 0 236.637 0z" transform="translate(-221.84)"/>
    <path id="Path_3172" fill="#b52025" d="M351.734 29.737V55.8a14.956 14.956 0 0 0 0-26.065z" transform="translate(-329.758 -27.866)"/>
    <path id="Path_3173" fill="#f3f1f2" d="M128.939 0h-.013a14.649 14.649 0 0 0-7.177 1.878V27.93a14.636 14.636 0 0 0 6.69 1.869c.167 0 .331.009.5.009 8.172 0 8.172-29.808 0-29.808z" transform="translate(-114.141)"/>
    <path id="Path_3174" d="M156.079 137.314c-.2-.2-.621-.174-.7-.5a3.055 3.055 0 0 1 .5-1.8c-1.166.275-2.085.727-2.084-.6-.669.824-1.389 1.649-1.686 1.5-.422-.25.405-2.372.5-3.5-.408.188-1.191.6-1.191.6s-.711-1.4-1.087-2.092v-.008.008c-.377.691-1.087 2.092-1.087 2.092s-.783-.412-1.191-.6c.09 1.126.917 3.248.5 3.5-.3.15-1.017-.675-1.686-1.5 0 1.326-.919.874-2.084.6a3.05 3.05 0 0 1 .5 1.8c-.073.325-.491.3-.695.5 1.353 1.362 3.7 2.373 2.58 3.5l3.01-.283c.1 1.025-.22 2.282.057 2.982h.211c.282-.725-.04-1.957.058-2.982l3.01.283c-1.131-1.126 1.213-2.138 2.565-3.5z" class="cls-2" transform="translate(-135.539 -122.68)"/>
</svg>
