<svg xmlns="http://www.w3.org/2000/svg" id="india_3_" width="29.598" height="30.266" viewBox="0 0 29.598 30.266">
    <defs>
        <style>
            .cls-7{fill:#314dc9}
        </style>
    </defs>
    <path id="Path_3161" fill="#0ab69f" d="M42.32 341.128a14.691 14.691 0 0 1-27.883 0l-.016-.045s27.905.03 27.899.045z" transform="translate(-13.583 -320.92)"/>
    <path id="Path_3162" fill="#01998d" d="M245.583 341.083a15.064 15.064 0 0 1-12.815 10.042 15.131 15.131 0 0 0 15.52-10l.016-.045z" transform="translate(-219.55 -320.92)"/>
    <path id="Path_3163" fill="#fe7d43" d="M42.336 10.1H14.421a14.693 14.693 0 0 1 27.916 0z" transform="translate(-13.583)"/>
    <path id="Path_3164" fill="#fd6930" d="M234.128 0c-.459 0-.912.021-1.36.062A15.057 15.057 0 0 1 245.583 10.1h2.717A15.04 15.04 0 0 0 234.128 0z" transform="translate(-219.55)"/>
    <path id="Path_3165" fill="#f5f8f9" d="M28.689 172.891H1.184a15.659 15.659 0 0 1-.018-11.191h27.541a15.654 15.654 0 0 1-.018 11.191z" transform="translate(-.141 -152.139)"/>
    <path id="Path_3166" fill="#e8edf2" d="M450.094 161.7h-2.721a15.481 15.481 0 0 1-.018 11.194h2.721a15.362 15.362 0 0 0 .018-11.194z" transform="translate(-421.543 -152.139)"/>
    <g id="Group_2954" transform="translate(10.688 10.996)">
        <path id="Path_3167" d="M190.064 186.009a4.138 4.138 0 1 0 4.108 4.137 4.174 4.174 0 0 0-4.108-4.137zm2.557 4.594h.612a3.215 3.215 0 0 1-.148.614v.01a3.215 3.215 0 0 1-.455.853l-.878-.884a.451.451 0 0 0-.641 0 .459.459 0 0 0 0 .646l.877.883a3.194 3.194 0 0 1-1.466.612v-.695a.453.453 0 1 0-.907 0v.695a3.193 3.193 0 0 1-1.465-.612l.877-.883a.459.459 0 0 0 0-.646.451.451 0 0 0-.641 0l-.877.884a3.224 3.224 0 0 1-.457-.855v-.007a3.22 3.22 0 0 1-.148-.615h.584a.457.457 0 0 0 0-.913h-.588a3.2 3.2 0 0 1 .607-1.477l.878.884a.451.451 0 0 0 .641 0 .459.459 0 0 0 0-.646l-.877-.883a3.193 3.193 0 0 1 1.466-.612v.741a.453.453 0 1 0 .907 0v-.741a3.193 3.193 0 0 1 1.466.612l-.877.883a.459.459 0 0 0 0 .646.451.451 0 0 0 .641 0l.878-.884a3.2 3.2 0 0 1 .607 1.477h-.612a.457.457 0 0 0 0 .913z" class="cls-7" transform="translate(-185.956 -186.009)"/>
        <path id="Path_3168" d="M247.434 246.956a.531.531 0 0 0-.5.357.542.542 0 0 0 0 .355.53.53 0 0 0 1 0 .542.542 0 0 0 0-.355.531.531 0 0 0-.5-.357z" class="cls-7" transform="translate(-243.326 -243.353)"/>
    </g>
</svg>
