<svg xmlns="http://www.w3.org/2000/svg" id="usa-today_1_" width="29.598" height="29.811" viewBox="0 0 29.598 29.811">
    <defs>
        <style>
            .cls-1{fill:#c42126}.cls-2{fill:#e7e7e7}.cls-3{fill:#dc3027}.cls-4{fill:#f3f4f5}.cls-5{fill:#e73625}.cls-7{fill:#efefef}
        </style>
    </defs>
    <g id="Group_2955" transform="translate(.061)">
        <rect id="Rectangle_3548" width="29.466" class="cls-1" transform="translate(.006 16.3)"/>
        <rect id="Rectangle_3549" width="26.395" class="cls-1" transform="translate(1.54 8.163)"/>
        <rect id="Rectangle_3550" width="28.493" class="cls-1" transform="translate(.491 10.875)"/>
        <path id="Path_3176" d="M223.854 0c-.291 0-.579.011-.865.027h1.731c-.287-.016-.575-.027-.866-.027z" class="cls-1" transform="translate(-209.117)"/>
        <rect id="Rectangle_3551" width="29.475" class="cls-1" transform="translate(0 13.587)"/>
    </g>
    <path id="Path_3177" d="M289.8 46.236h7.067a14.916 14.916 0 0 0-2.9-2.711h-5.306a14.224 14.224 0 0 1 1.139 2.711z" class="cls-2" transform="translate(-270.63 -40.786)"/>
    <path id="Path_3178" d="M246.225 3.142h5.306A14.65 14.65 0 0 0 243.852.43h-.452c1.338.17 1.955 1.17 2.825 2.712z" class="cls-3" transform="translate(-228.187 -.403)"/>
    <path id="Path_3179" d="M327.12 132.421a14.867 14.867 0 0 0-1.05-2.711h-8.13c.165.871.295 1.78.391 2.711z" class="cls-2" transform="translate(-298.074 -121.547)"/>
    <path id="Path_3180" d="M300.557 89.324h8.587a14.925 14.925 0 0 0-1.757-2.712h-7.5a24.057 24.057 0 0 1 .67 2.712z" class="cls-3" transform="translate(-281.148 -81.161)"/>
    <path id="Path_3181" d="M329.178 218.6h8.962c.043-.459.067-.924.067-1.393 0-.445-.023-.883-.061-1.318h-8.966c.029.906.029 1.811-.002 2.711z" class="cls-2" transform="translate(-308.609 -202.306)"/>
    <path id="Path_3182" d="M327.811 175.514a14.942 14.942 0 0 0-.491-2.711h-9.166c.092.888.153 1.8.183 2.711z" class="cls-3" transform="translate(-298.274 -161.927)"/>
    <path id="Path_3183" d="M315.465 304.787h8.246a14.846 14.846 0 0 0 1.067-2.712h-8.914c-.098.933-.232 1.842-.399 2.712z" class="cls-2" transform="translate(-295.753 -283.064)"/>
    <path id="Path_3184" d="M330.622 261.7a14.913 14.913 0 0 0 .507-2.711h-9.242c-.032.916-.094 1.824-.188 2.711z" class="cls-3" transform="translate(-301.598 -242.689)"/>
    <path id="Path_3185" d="M294.453 390.972a14.922 14.922 0 0 0 2.938-2.711h-6.943a13.9 13.9 0 0 1-1.157 2.711z" class="cls-2" transform="translate(-271.215 -363.826)"/>
    <g id="Group_2956" transform="translate(14.173 21.723)">
        <path id="Path_3186" d="M303.625 347.879h7.2a14.932 14.932 0 0 0 1.781-2.712H304.3a23.719 23.719 0 0 1-.675 2.712z" class="cls-3" transform="translate(-298.826 -345.167)"/>
        <path id="Path_3187" d="M226.908 473.46h-.09z" class="cls-3" transform="translate(-226.818 -465.383)"/>
        <path id="Path_3188" d="M236.837 434.023a14.657 14.657 0 0 0 8.439-2.663h-5.356c-.951 1.649-1.578 2.663-3.083 2.663z" class="cls-3" transform="translate(-236.211 -425.935)"/>
    </g>
    <path id="Path_3189" d="M228.791 473.52c-.18 0-.358 0-.536-.011.18.006.359.011.536.011z" class="cls-1" transform="translate(-213.993 -443.709)"/>
    <path id="Path_3190" d="M68.916 43.525H56.643a14.917 14.917 0 0 0-2.9 2.711h16.3a14.224 14.224 0 0 0-1.127-2.711z" class="cls-4" transform="translate(-50.389 -40.786)"/>
    <path id="Path_3191" d="M100.092 3.142h12.273A4.724 4.724 0 0 0 109.046.43h-1.275a14.649 14.649 0 0 0-7.679 2.712z" class="cls-5" transform="translate(-93.838 -.403)"/>
    <path id="Path_3192" d="M8.835 132.421h20.172c-.1-.932-.226-1.841-.391-2.711H9.885a14.867 14.867 0 0 0-1.05 2.711z" class="cls-4" transform="translate(-8.283 -121.547)"/>
    <path id="Path_3193" d="M27.393 86.609a14.936 14.936 0 0 0-1.756 2.712h18.731a24.041 24.041 0 0 0-.671-2.712z" class="cls-5" transform="translate(-24.035 -81.158)"/>
    <path id="Path_3194" d="M0 217.214c0 .47.024.935.067 1.393h20.84c.031-.9.031-1.81 0-2.711H.063c-.038.435-.063.874-.063 1.318z" class="cls-4" transform="translate(-.002 -202.309)"/>
    <path id="Path_3195" d="M.978 175.514h20.846c-.03-.915-.091-1.823-.183-2.711H1.469a14.923 14.923 0 0 0-.491 2.711z" class="cls-5" transform="translate(-.917 -161.927)"/>
    <path id="Path_3196" d="M29.319 302.072H9.175a14.858 14.858 0 0 0 1.067 2.712H28.92c.167-.87.3-1.779.399-2.712z" class="cls-4" transform="translate(-8.602 -283.061)"/>
    <path id="Path_3197" d="M1.575 261.7h20.143c.094-.888.157-1.8.188-2.711H1.068a14.927 14.927 0 0 0 .507 2.711z" class="cls-5" transform="translate(-1.001 -242.689)"/>
    <path id="Path_3198" d="M57.691 390.972h12.123a13.9 13.9 0 0 0 1.157-2.711H54.753a14.916 14.916 0 0 0 2.938 2.711z" class="cls-4" transform="translate(-51.332 -363.826)"/>
    <g id="Group_2957" transform="translate(1.64 21.723)">
        <path id="Path_3199" d="M26.254 345.166a14.943 14.943 0 0 0 1.781 2.712h16.218a23.784 23.784 0 0 0 .679-2.712z" class="cls-5" transform="translate(-26.254 -345.166)"/>
        <path id="Path_3200" d="M109.605 434.008h.09c.178.006.357.011.536.011 1.505 0 2.732-1.014 3.683-2.663h-12.121a14.651 14.651 0 0 0 7.812 2.652z" class="cls-5" transform="translate(-97.073 -425.934)"/>
    </g>
    <path id="Path_3201" fill="#283991" d="M15.438.123a14.839 14.839 0 0 0-14.43 13.555h14.43V.123z" transform="translate(-.945 -.115)"/>
    <g id="Group_2958" transform="translate(.498 1.033)">
        <path id="Path_3202" d="M33.047 134.187l.225.7H34l-.591.432.226.7-.591-.433-.59.433.225-.7-.591-.432h.73z" class="cls-7" transform="translate(-30.584 -126.775)"/>
        <path id="Path_3203" d="M33.047 173.438l.225.7H34l-.591.432.226.7-.591-.433-.59.433.225-.7-.591-.432h.73z" class="cls-7" transform="translate(-30.584 -163.556)"/>
        <path id="Path_3204" d="M72.3 75.3l.226.7h.73l-.591.433.226.7-.591-.433-.591.432.226-.7-.59-.432h.73z" class="cls-7" transform="translate(-67.385 -71.59)"/>
        <path id="Path_3205" d="M72.3 114.554l.226.7h.73l-.591.432.226.7-.59-.432-.591.432.226-.7-.591-.432h.73z" class="cls-7" transform="translate(-67.385 -108.378)"/>
        <path id="Path_3206" d="M72.3 153.812l.226.7h.73l-.591.432.226.7-.59-.433-.591.433.226-.7-.591-.432h.73z" class="cls-7" transform="translate(-67.385 -145.165)"/>
        <path id="Path_3207" d="M8.572 165.3l-.226-.7.591-.432h-.73l-.016-.051c-.08.25-.153.5-.219.758l.01-.008z" class="cls-7" transform="translate(-7.971 -154.819)"/>
        <path id="Path_3208" d="M37.169 96.757l.59-.433.591.433-.226-.7.591-.433h-.73l-.226-.7-.226.7h-.269c-.05.076-.1.153-.147.23l.277.2z" class="cls-7" transform="translate(-35.297 -89.985)"/>
        <path id="Path_3209" d="M77.777 47.853l.59.432-.226-.7.59-.433h-.422q-.537.4-1.036.856l-.089.275z" class="cls-7" transform="translate(-72.861 -45.218)"/>
        <path id="Path_3210" d="M116.452 27.257l.591-.433.59.433-.226-.7.59-.432h-.73l-.031-.094c-.247.127-.492.26-.732.4l.172.125z" class="cls-7" transform="translate(-109.674 -25.426)"/>
        <path id="Path_3211" d="M111.56 55.671l.226.7h.73l-.591.433.226.7-.59-.433-.591.433.226-.7-.591-.433h.73z" class="cls-7" transform="translate(-104.191 -53.2)"/>
        <path id="Path_3212" d="M111.56 94.929l.226.7h.73l-.591.433.226.7-.59-.433-.591.433.226-.7-.591-.433h.73z" class="cls-7" transform="translate(-104.191 -89.988)"/>
        <path id="Path_3213" d="M111.56 134.187l.226.7h.73l-.591.432.226.7-.59-.433-.591.433.226-.7-.591-.432h.73z" class="cls-7" transform="translate(-104.191 -126.775)"/>
        <path id="Path_3214" d="M111.56 173.438l.226.7h.73l-.591.432.226.7-.59-.433-.591.433.226-.7-.591-.432h.73z" class="cls-7" transform="translate(-104.191 -163.556)"/>
        <path id="Path_3215" d="M150.818 36.038l.225.7h.73l-.591.433.225.7-.59-.432-.591.432.226-.7-.591-.433h.73z" class="cls-7" transform="translate(-140.996 -34.803)"/>
        <path id="Path_3216" d="M150.818 75.3l.225.7h.73l-.591.433.225.7-.59-.432-.591.432.226-.7-.59-.433h.73z" class="cls-7" transform="translate(-140.996 -71.59)"/>
        <path id="Path_3217" d="M150.818 114.554l.225.7h.73l-.591.432.225.7-.59-.432-.591.432.226-.7-.591-.432h.73z" class="cls-7" transform="translate(-140.996 -108.378)"/>
        <path id="Path_3218" d="M150.818 153.812l.225.7h.73l-.591.432.225.7-.59-.433-.591.433.226-.7-.591-.432h.73z" class="cls-7" transform="translate(-140.996 -145.165)"/>
        <path id="Path_3219" d="M190.076 16.413l.225.7h.73l-.591.432.226.7-.59-.433-.591.433.226-.7-.591-.432h.73z" class="cls-7" transform="translate(-177.801 -16.413)"/>
        <path id="Path_3220" d="M190.076 55.671l.225.7h.73l-.591.433.226.7-.59-.433-.591.433.226-.7-.591-.433h.73z" class="cls-7" transform="translate(-177.801 -53.2)"/>
        <path id="Path_3221" d="M190.076 94.929l.225.7h.73l-.591.433.226.7-.59-.433-.591.433.226-.7-.591-.433h.73z" class="cls-7" transform="translate(-177.801 -89.988)"/>
        <path id="Path_3222" d="M190.076 134.187l.225.7h.73l-.591.432.226.7-.59-.433-.591.433.226-.7-.591-.432h.73z" class="cls-7" transform="translate(-177.801 -126.775)"/>
        <path id="Path_3223" d="M190.076 173.438l.225.7h.73l-.591.432.226.7-.59-.433-.591.433.226-.7-.591-.432h.73z" class="cls-7" transform="translate(-177.801 -163.556)"/>
    </g>
</svg>
